<svg viewBox="0 0 100 100" xmlns="http://www.w3.org/2000/svg"><circle cx="50" cy="50" fill="#fff" r="49.21"/><path d="m69.54 41.64h-48.49v24.09a5.81 5.81 0 0 0 5.79 5.79h46.32a5.81 5.81 0 0 0 5.84-5.79v-24.09z" fill="#414449"/><path d="m73.16 29.5h-9.16l-3.59-4.85a5.74 5.74 0 0 0 -4.25-1.88h-12.3a5.85 5.85 0 0 0 -4.28 1.88l-3.58 4.85h-9.16a5.81 5.81 0 0 0 -5.79 5.79v6.35h57.95v-6.35a5.81 5.81 0 0 0 -5.84-5.79z" fill="#5a5f65"/><circle cx="72.4" cy="35.59" fill="#cccdce" r="2.26"/><circle cx="50" cy="51.25" fill="#fff" r="16.06"/><path d="m50 38.38a12.87 12.87 0 0 0 -12.87 12.87h12.87z" fill="#c7161d"/><path d="m50 64.13a12.88 12.88 0 0 0 12.87-12.88h-12.87z" fill="#f5ab18"/><path d="m50 38.38v12.87h12.87a12.87 12.87 0 0 0 -12.87-12.87z" fill="#231815"/><path d="m37.13 51.25a12.88 12.88 0 0 0 12.87 12.88v-12.88z" fill="#0f357a"/></svg>